<svg xmlns="http://www.w3.org/2000/svg" data-name="Layer 1" viewBox="0 0 92.63 98" x="0px" y="0px"><title>17</title><path d="M47.83,22.92c1.17.27.93-2.84.93-2.84,0-1.16-1.28-1.6-1.63-.44S46.67,22.66,47.83,22.92Z" transform="translate(-3.69 -2)"/><path d="M39,17.79c-.35,1.16-.47,3,.7,3.29s.93-2.84.93-2.84C40.66,17.08,39.38,16.64,39,17.79Z" transform="translate(-3.69 -2)"/><path d="M56.75,27.75a.78.78,0,1,0,.54,1.47A3.25,3.25,0,0,0,59.65,27a3.54,3.54,0,0,0-.85-2.75,1,1,0,0,1,.59-.2c.6,0,1.21.95,1.41,1.38a.78.78,0,0,0,1.43-.65c-.1-.22-1-2.18-2.73-2.3a3,3,0,0,0-2.36,1.15h0a7.51,7.51,0,0,0-.77,1,.78.78,0,1,0,1.33.84l.05-.07a1.81,1.81,0,0,1,.39,1.24C58,27.18,57.31,27.54,56.75,27.75Z" transform="translate(-3.69 -2)"/><path d="M93.74,20.22c-4.06-7.47-12.46-8.55-16.68-8.6a.42.42,0,0,0-.14.82c3.35,1.17,9.39,3.89,12.61,9.18L64.07,33.11l-2.34-1.26A10.11,10.11,0,0,0,65.42,25c1.72.72,6.14-3.46,8-4.06a34.7,34.7,0,0,0,4.85-2.33,1.39,1.39,0,0,0,.05-2.4,21.13,21.13,0,0,0-4-1.9C66.9,13.81,62.73,1.55,52.32,2S39.13,7.1,36.12,9.42c-2.27,1.74-.25,3.61.89,4.43a7.31,7.31,0,0,0-.75,4.76c.11,1.4.2,2.61-.57,3.63l-.63-.06a2.57,2.57,0,0,0-3,2.12,4.47,4.47,0,0,0,3.27,4.84c.08.44,1,4.78,4.34,6.34-.25.34-.54.77-.83,1.26-2.34,3.94-5.06,6.88-5.66,6.52-1.14-.68-3.64-1.68-5.72-1.17l-.09,0c-.29-.41-.57-.79-.83-1.13l.76-1.23a.79.79,0,0,0,.08-.17c.39-1.21.25-3.82-3-5.06a6,6,0,0,0-1.75-.39c0-.08.05-.16.09-.24l2.06-3.49a.78.78,0,0,0-.09-.92c-.1-.11-2.43-2.67-8.11-1.78a17.46,17.46,0,0,1-5.06.21,2.27,2.27,0,0,0-2,.45.78.78,0,0,0-.24.42c-.05.24-.39,2.3,2.29,5.37h0a3.75,3.75,0,0,0-2.27,3.14,8,8,0,0,0,1,4.71c-1.14.86-8.3,6.69-6.06,15.58.92,3.63,3.94,6.3,8.52,7.52a21,21,0,0,0,5.36.67c4.38,0,8.62-1.27,10.73-3.47a12.42,12.42,0,0,0,3.68-8.11,7.71,7.71,0,0,0,2,.26A8.77,8.77,0,0,0,38,53.65c-.68,2.11-1.36,5.14-.42,7a2.81,2.81,0,0,0,2,1.5,6.09,6.09,0,0,0,1.25.13A6.79,6.79,0,0,0,43,61.87c.31,1.55.49,3.67-.09,4.58a12.76,12.76,0,0,1-1.22,1.36c-2.41,2.51-6.91,7.17-3.49,11.95a79.67,79.67,0,0,0,6.79,8.33c-.09.34-.19.76-.27,1.2-1.15.24-4.46.81-6.68-.06a3.91,3.91,0,0,0-3.85,1c-1.29,1.08-2.42,3-2.07,4.74a3.6,3.6,0,0,0,2.78,2.71,8.65,8.65,0,0,0,2.58.36c3.19,0,6.86-1.33,9.95-2.45a22.11,22.11,0,0,1,4.74-1.41A4,4,0,0,0,55.79,92a3.5,3.5,0,0,0,.28-1.41,82.57,82.57,0,0,1,8.65-1.92c.31,0,.64,0,1-.06,1.57-.07,3.52-.16,4.31-1.56.61-1.07.35-2.56-.8-4.66a.78.78,0,0,0-.2-.24,6.69,6.69,0,0,0,.27-.76.78.78,0,0,0-.15-.72s-2.55-3.09-1.64-5.8a14.89,14.89,0,0,0,.94-4.6,12.48,12.48,0,0,0,1.66-1.74c2.6-3.32,3.12-7.71,1.57-13A2.83,2.83,0,0,0,73,53.84a1.56,1.56,0,0,0-.77-1.56c-1.68-1.18-2.67-4.68-2.91-5.93a.78.78,0,0,0-.12-.29,25.49,25.49,0,0,0-2.39-8.37L91.4,26.32c.84,4.1.09,9.25-3.53,15.69a.42.42,0,0,0,.6.56C92,40.18,100.57,32.77,93.74,20.22ZM45.5,47.54,48,48.7a7.5,7.5,0,0,0-2.2,3.42c-2-.25-7-1.34-8.55-3.68a2.78,2.78,0,0,1-.39-2.32A8.66,8.66,0,0,1,39.11,44l.13-.06,0,0a3.52,3.52,0,0,1,3.58-.14C43.11,44.61,43.9,46.78,45.5,47.54Zm-10.26.1a4.35,4.35,0,0,0,.69,1.68,5.31,5.31,0,0,0,.51.64l-.35.16a1.35,1.35,0,0,1-1.58-.25c-.18-.21-.66-.75.43-2Zm8.31-5.28a4.87,4.87,0,0,0-4.41-.13c-.49-1.4.21-3.21,1-4.65l.06-.11h0a14.16,14.16,0,0,1,1-1.5,12.46,12.46,0,0,0,2.26.2A16.09,16.09,0,0,0,55,31.28a4.54,4.54,0,0,0,5.1,1.5l2.13,1.15ZM37.07,29.55a11.14,11.14,0,0,0,1.91.19,4.23,4.23,0,0,0,2.64-.65A.8.8,0,0,0,41.75,28a.77.77,0,0,0-1.09-.12s-1.19.78-4.56-.13a3,3,0,0,1-2.47-3.13,1,1,0,0,1,1.25-.86,32.22,32.22,0,0,0,6.34,0A.78.78,0,0,0,41,22.18a32.91,32.91,0,0,1-3.58.15,7.63,7.63,0,0,0,.36-3.84c-.19-2.41-.36-4.5,3.92-6.26,4.61-1.9,9,.27,11.88,2.43a11.23,11.23,0,0,1,3.18,3.79l.83,1.6a.78.78,0,0,0,.59.41c3.43.46,5.31,1.73,5.6,3.76.4,2.84-2.37,6.27-4,7-2.49,1.11-3.93-1.29-4.09-1.56a.78.78,0,0,0-.62-.4.77.77,0,0,0-.68.29,14.28,14.28,0,0,1-13.32,4.82C38.6,33.74,37.47,30.91,37.07,29.55ZM25.94,39l-.46.74a12.81,12.81,0,0,0-3.39-1.89c-1.16-.59-1.53-1.2-1.38-1.54s1.42-1,3.1-.35C26.25,36.93,26,38.61,25.94,39ZM10.77,37.52a2.19,2.19,0,0,1,1.3-1.91,3.12,3.12,0,0,1,1.16-.25,2.1,2.1,0,0,1,1,.23,5.08,5.08,0,0,1,2,2.93l.11.72a5.41,5.41,0,0,1,.12,2.46,6.36,6.36,0,0,1-2.35,1.22,1.33,1.33,0,0,1-1.44-.29A6.22,6.22,0,0,1,10.77,37.52Zm16.82,23.7C25,63.91,18.34,65,13,63.59c-2.32-.62-6.36-2.26-7.4-6.38-2-8,4.32-13.08,5.43-13.91a4.78,4.78,0,0,0,.61.58,3.15,3.15,0,0,0,1.94.72,2.77,2.77,0,0,0,1.05-.21c3.51-1.44,3.72-1.79,3.19-5.37l-.11-.76,0-.08c0-.12-.75-2.91-2.82-4a3.64,3.64,0,0,0-1.63-.4c-2.13-2.16-2.5-3.73-2.55-4.36a4.65,4.65,0,0,1,.59,0,15.92,15.92,0,0,0,2.24.1l1,2.88A.78.78,0,1,0,16,32l-.83-2.5c.49,0,1-.11,1.61-.21,3.55-.56,5.49.38,6.27.92l-1.75,3,0,.08a4.51,4.51,0,0,0-.32,1,.74.74,0,0,0,0,.11,2.69,2.69,0,0,0-1.7,1.39c-.44,1-.1,2.46,2.15,3.59l.08,0A9.24,9.24,0,0,1,25,41.52l.47.63,0,0a32.08,32.08,0,0,1,5.16,9.7S32,56.69,27.59,61.22Zm4.77-8.66a7.11,7.11,0,0,0-.19-1.09,30,30,0,0,0-3.82-7.93,7.66,7.66,0,0,1,4.06,1.07,1.56,1.56,0,0,0,.81.22c1.3,0,2.83-1.46,4.2-3.16A4.31,4.31,0,0,0,37.75,43a9.8,9.8,0,0,0-2.22,2.23l-1.67,1.51-.05.05c-1.86,2.05-1,3.54-.47,4.08a2.81,2.81,0,0,0,2.12.93,3.09,3.09,0,0,0,1.3-.29l.94-.44.06,0c.26.17.53.34.81.49A7,7,0,0,1,32.36,52.56Zm7.54,8a1.24,1.24,0,0,1-.92-.68c-.89-1.73.45-5.81,1.19-7.59a24.54,24.54,0,0,0,5.2,1.35,14.46,14.46,0,0,0-.31,2.68.78.78,0,0,0,.49.73l3.58,1.47a16.13,16.13,0,0,0-5.34,1.36A6.19,6.19,0,0,1,39.9,60.58ZM56.61,74.95a27.82,27.82,0,0,0,2,5.43c.5.91,1,1.87,1.39,2.66-2.46-.77-6.48-1.73-8.1-.41a2.1,2.1,0,0,0-.35.36,3,3,0,0,1-.36-1c-.28-1.89,1.09-5.4,1.64-6.59,0,0,0,0,0-.05C53.94,75.26,55.23,75.15,56.61,74.95ZM54.36,91.34A2.47,2.47,0,0,1,52,92.57a22,22,0,0,0-5.2,1.5c-3.74,1.36-8.4,3-11.52,2.07-1-.31-1.57-.82-1.71-1.52a3.81,3.81,0,0,1,1.54-3.23,2.41,2.41,0,0,1,2.27-.71c2.35.92,5.52.52,7.09.23a2.65,2.65,0,0,0,.26,1.33,1.2,1.2,0,0,0,.79.57l.16,0a.78.78,0,0,0,.37-1.48,8,8,0,0,1,.3-2.54,11.91,11.91,0,0,0,2.48.28,6.51,6.51,0,0,0,4.41-1.46C54.37,89.06,54.77,90.4,54.36,91.34Zm14.29-5.07c-.36.64-1.83.71-3,.76-.37,0-.74,0-1.07.06A80.64,80.64,0,0,0,55.81,89a8.23,8.23,0,0,0-1.47-2.57l-.06,0,.15-.25A.78.78,0,0,0,54,85.06a6.22,6.22,0,0,1-1.34-.78.51.51,0,0,1,.18-.43c1.1-.89,5.56.22,8.38,1.29h.06a9,9,0,0,0,2.29.29,6.58,6.58,0,0,0,3.2-.75,4.92,4.92,0,0,0,1.32-1.07C68.91,85.28,68.81,86,68.65,86.27Zm.2-18.71c-3,3.82-8.6,5.33-13.13,5.91C57,72,58.5,69.76,58.17,68c-.18-.93-.18-1.45,0-1.7s1.35-.58,2.13-.69c.38-.05,7.27-1,10.54-2.84A9.84,9.84,0,0,1,68.86,67.55Zm2.45-14,.1.08c-.21.43-1.57,1.2-3.24,1.87a19.59,19.59,0,0,0,1-4.65A7.2,7.2,0,0,0,71.31,53.57Zm-3.57-4.35c-.17,4.88-1.79,8.77-4.34,10.41-2,1.26-4.49,1.25-7.54,0l-9.21-3.78c.1-1.41.6-5.27,3.15-6.41a27.48,27.48,0,0,1,7.31,1.7l.08,0a7.57,7.57,0,0,1,3.83,3,.78.78,0,0,0,1.38-.75,8.32,8.32,0,0,0-3.68-3.25,2.91,2.91,0,0,1,3-.81.78.78,0,1,0,.61-1.45c-2.39-1-4.37.7-5.18,1.57a28.86,28.86,0,0,0-7.3-1.62l-2.53-1.17,18-8.32A23.8,23.8,0,0,1,67.73,49.21Zm23-24.33L45.65,45.73a5.88,5.88,0,0,1-1.18-2.05l19.69-8.88a.78.78,0,0,0,.49-.22L90.21,23l.11,0a14.55,14.55,0,0,1,.57,1.4A4,4,0,0,1,90.77,24.89Z" transform="translate(-3.69 -2)"/></svg>
